<svg width="147" height="230" viewBox="0 0 147 230" fill="none" xmlns="http://www.w3.org/2000/svg">
<path d="M68.4181 14.9465C87.9443 -4.57971 120.607 -4.69628 132.471 20.2393C133.549 22.5035 134.569 24.7975 135.531 27.1192C142.893 44.8934 146.682 63.9437 146.682 83.1823C146.682 102.421 142.893 121.471 135.531 139.245C128.168 157.02 117.377 173.17 103.773 186.773C90.1696 200.377 74.0196 211.168 56.2454 218.531C38.4712 225.893 19.4209 229.682 0.18228 229.682C-19.0564 229.682 -38.1066 225.893 -55.8808 218.531C-58.2025 217.569 -60.4965 216.549 -62.7607 215.471C-87.6963 203.607 -87.5797 170.944 -68.0535 151.418L0.182286 83.1823L68.4181 14.9465Z" fill="#FECA57"/>
</svg>
