<svg width="302" height="195" viewBox="0 0 302 195" fill="none" xmlns="http://www.w3.org/2000/svg">
<path d="M167.418 30.9464C186.944 11.4202 219.607 11.3037 231.471 36.2393C232.549 38.5035 233.569 40.7974 234.531 43.1191C241.893 60.8933 245.682 79.9436 245.682 99.1823C245.682 118.421 241.893 137.471 234.531 155.245C227.168 173.02 216.377 189.17 202.773 202.773C189.17 216.377 173.02 227.168 155.245 234.531C137.471 241.893 118.421 245.682 99.1823 245.682C79.9436 245.682 60.8933 241.893 43.1191 234.531C40.7975 233.569 38.5035 232.549 36.2393 231.471C11.3037 219.607 11.4203 186.944 30.9465 167.418L99.1823 99.1823L167.418 30.9464Z" fill="#FECA57"/>
</svg>
