<svg width="14" height="16" viewBox="0 0 14 16" fill="none" xmlns="http://www.w3.org/2000/svg">
<g clip-path="url(#clip0)">
<path d="M13.2882 13.76C12.9353 12.2699 12.0899 10.9425 10.8888 9.99261C9.68767 9.04273 8.20117 8.52597 6.66985 8.52597C5.13854 8.52597 3.65203 9.04273 2.45093 9.99261C1.24983 10.9425 0.404425 12.2699 0.0515468 13.76C-0.0111252 14.0252 -0.0126876 14.3012 0.0469778 14.5671C0.106643 14.833 0.225975 15.0819 0.395954 15.2949C0.570365 15.5154 0.792538 15.6934 1.04573 15.8155C1.29893 15.9377 1.57654 16.0007 1.85765 16H11.4766C11.758 16.0008 12.0359 15.9375 12.2892 15.8149C12.5425 15.6922 12.7645 15.5135 12.9383 15.2922C13.109 15.0801 13.2292 14.8319 13.2898 14.5664C13.3504 14.301 13.3499 14.0252 13.2882 13.76Z" fill="#212F3E"/>
<path d="M6.66577 7.21899C7.37966 7.21899 8.07752 7.00729 8.67109 6.61068C9.26467 6.21406 9.72731 5.65033 10.0005 4.99079C10.2737 4.33124 10.3452 3.60549 10.2059 2.90532C10.0666 2.20514 9.72286 1.56199 9.21806 1.0572C8.71327 0.552401 8.07012 0.20863 7.36994 0.069357C6.66977 -0.069916 5.94402 0.00156393 5.28447 0.274758C4.62493 0.547952 4.0612 1.01059 3.66458 1.60417C3.26797 2.19774 3.05627 2.8956 3.05627 3.60949C3.05699 4.56657 3.43751 5.48424 4.11426 6.161C4.79102 6.83775 5.70869 7.21827 6.66577 7.21899Z" fill="#212F3E"/>
</g>
<defs>
<clipPath id="clip0">
<rect width="13.3315" height="16" fill="white"/>
</clipPath>
</defs>
</svg>
