<svg width="16" height="13" viewBox="0 0 16 13" fill="none" xmlns="http://www.w3.org/2000/svg">
<g clip-path="url(#clip0_27:2585)">
<path d="M16 6.24936C16.001 5.9944 15.9234 5.74533 15.7779 5.53599C15.6323 5.32665 15.4258 5.16721 15.1865 5.07933L1.68238 0.0875874C1.44767 -0.000120163 1.19198 -0.0150642 0.948648 0.0447044C0.705319 0.104473 0.485648 0.236179 0.318284 0.422647C0.150919 0.609116 0.0436277 0.84169 0.0104046 1.09004C-0.0228195 1.33839 0.0195665 1.59099 0.132033 1.81489L2.02309 5.58907H4.90721C5.08233 5.58907 5.25027 5.65864 5.3741 5.78246C5.49793 5.90629 5.56749 6.07424 5.56749 6.24936C5.56749 6.42447 5.49793 6.59242 5.3741 6.71625C5.25027 6.84007 5.08233 6.90964 4.90721 6.90964H2.02309L0.132033 10.6944C0.0196743 10.9179 -0.022541 11.1701 0.0109205 11.418C0.0443821 11.6659 0.151961 11.8979 0.319555 12.0836L0.367096 12.1364C0.536158 12.3064 0.75083 12.4238 0.985175 12.4745C1.21952 12.5251 1.46351 12.5067 1.68766 12.4217L15.1865 7.42202C15.4263 7.33399 15.633 7.17414 15.7786 6.96428C15.9242 6.75442 16.0015 6.50476 16 6.24936Z" fill="white"/>
</g>
<defs>
<clipPath id="clip0_27:2585">
<rect width="16" height="12.5005" fill="white" transform="translate(16 12.5005) rotate(-180)"/>
</clipPath>
</defs>
</svg>
