<svg width="16" height="16" viewBox="0 0 16 16" fill="none" xmlns="http://www.w3.org/2000/svg">
<g clip-path="url(#clip0_15_2390)">
<path d="M8 0C6.41775 0 4.87103 0.469192 3.55544 1.34824C2.23985 2.22729 1.21447 3.47672 0.608967 4.93853C0.00346627 6.40034 -0.15496 8.00887 0.153721 9.56072C0.462403 11.1126 1.22433 12.538 2.34315 13.6569C3.46197 14.7757 4.88743 15.5376 6.43928 15.8463C7.99113 16.155 9.59966 15.9965 11.0615 15.391C12.5233 14.7855 13.7727 13.7602 14.6518 12.4446C15.5308 11.129 16 9.58225 16 8C15.9978 5.87893 15.1543 3.84535 13.6545 2.34552C12.1547 0.8457 10.1211 0.00215374 8 0V0ZM10.7119 10.9831C10.6522 11.0863 10.5665 11.172 10.4631 11.2315C10.3598 11.2911 10.2426 11.3223 10.1234 11.322C9.99733 11.325 9.87277 11.2941 9.76271 11.2325L7.65017 10.0122C7.5493 9.95082 7.46605 9.86435 7.40854 9.76122C7.35103 9.65808 7.32123 9.54181 7.32204 9.42373V5.35593C7.32204 5.17612 7.39346 5.00368 7.52061 4.87654C7.64775 4.74939 7.82019 4.67797 8 4.67797C8.17981 4.67797 8.35225 4.74939 8.4794 4.87654C8.60654 5.00368 8.67797 5.17612 8.67797 5.35593V9.03322L10.4515 10.0556C10.6073 10.1458 10.721 10.294 10.7677 10.4678C10.8145 10.6416 10.7905 10.8269 10.701 10.9831H10.7119Z" fill="#576574"/>
</g>
<defs>
<clipPath id="clip0_15_2390">
<rect width="16" height="16" fill="white"/>
</clipPath>
</defs>
</svg>
