<svg width="18" height="16" viewBox="0 0 18 16" fill="none" xmlns="http://www.w3.org/2000/svg">
<g clip-path="url(#clip0)">
<path d="M16.0705 11.8413C16.8933 10.6495 17.3359 9.23657 17.3402 7.78839C17.3402 3.49449 13.4519 0 8.6701 0C3.88832 0 0 3.49449 0 7.78839C0 12.0823 3.88832 15.5768 8.6701 15.5768C9.97777 15.578 11.2716 15.3089 12.4702 14.7862L16.1381 15.9618C16.2661 16.0031 16.403 16.0083 16.5337 15.9766C16.6645 15.945 16.7839 15.8778 16.8788 15.7825C16.9751 15.6889 17.0435 15.5703 17.0762 15.44C17.1089 15.3097 17.1046 15.1728 17.0639 15.0448L16.0705 11.8413Z" fill="#212F3E"/>
</g>
<defs>
<clipPath id="clip0">
<rect width="17.3402" height="16" fill="white"/>
</clipPath>
</defs>
</svg>
