<svg width="30" height="20" viewBox="0 0 30 20" fill="none" xmlns="http://www.w3.org/2000/svg">
<path fill-rule="evenodd" clip-rule="evenodd" d="M4.28571 16.5714V4.2857H7.14286C8.72081 4.2857 10 3.00651 10 1.42856H26.3915C27.9624 1.42856 28.9201 3.15646 28.0875 4.48856L21.8492 14.4698C21.4927 14.3504 21.111 14.2857 20.7143 14.2857C18.7418 14.2857 17.1429 15.8847 17.1429 17.8571C17.1429 18.1017 17.1674 18.3406 17.2143 18.5714H6.28904C5.18447 18.5714 4.28571 17.676 4.28571 16.5714ZM21.0546 15.7412L19.8732 17.6314C19.5983 18.0712 19.1639 18.3812 18.672 18.5078C18.6067 18.3026 18.5714 18.084 18.5714 17.8571C18.5714 16.6737 19.5308 15.7143 20.7143 15.7143C20.8301 15.7143 20.9438 15.7235 21.0546 15.7412Z" fill="#1CD0A1"/>
<path d="M18.5714 17.8572C18.5714 16.6737 19.5308 15.7143 20.7143 15.7143C21.8978 15.7143 22.8571 16.6737 22.8571 17.8572C22.8571 19.0406 21.8978 20 20.7143 20C19.5308 20 18.5714 19.0406 18.5714 17.8572Z" fill="#FECA57"/>
<path d="M0 1.42857C0 0.639593 0.639593 0 1.42857 0H7.14286C7.93183 0 8.57143 0.639593 8.57143 1.42857C8.57143 2.21755 7.93183 2.85714 7.14286 2.85714H1.42857C0.639593 2.85714 0 2.21755 0 1.42857Z" fill="#FECA57"/>
</svg>
