<svg width="17" height="16" viewBox="0 0 17 16" fill="none" xmlns="http://www.w3.org/2000/svg">
<path d="M8.33985 0C6.7576 0 5.21088 0.469192 3.89528 1.34824C2.57969 2.22729 1.55431 3.47672 0.948811 4.93853C0.34331 6.40034 0.184883 8.00887 0.493565 9.56072C0.802247 11.1126 1.56417 12.538 2.68299 13.6569C3.80181 14.7757 5.22728 15.5376 6.77912 15.8463C8.33097 16.155 9.9395 15.9965 11.4013 15.391C12.8631 14.7855 14.1125 13.7602 14.9916 12.4446C15.8707 11.129 16.3398 9.58225 16.3398 8C16.337 5.87915 15.4932 3.84598 13.9935 2.34632C12.4939 0.846646 10.4607 0.0028699 8.33985 0V0ZM9.01781 11.6963V12.339C9.01781 12.5188 8.94638 12.6912 8.81924 12.8184C8.6921 12.9455 8.51965 13.0169 8.33985 13.0169C8.16004 13.0169 7.98759 12.9455 7.86045 12.8184C7.73331 12.6912 7.66188 12.5188 7.66188 12.339V11.7966H7.11951C6.9397 11.7966 6.76726 11.7252 6.64011 11.598C6.51297 11.4709 6.44154 11.2985 6.44154 11.1186C6.44154 10.9388 6.51297 10.7664 6.64011 10.6392C6.76726 10.5121 6.9397 10.4407 7.11951 10.4407H8.33985C8.57432 10.4407 8.79918 10.3475 8.96498 10.1817C9.13077 10.0159 9.22391 9.79108 9.22391 9.55661C9.22391 9.32214 9.13077 9.09727 8.96498 8.93148C8.79918 8.76569 8.57432 8.67254 8.33985 8.67254C7.80853 8.66809 7.2961 8.47493 6.89407 8.12754C6.49203 7.78015 6.22657 7.30116 6.14509 6.77612C6.06362 6.25107 6.17143 5.71416 6.44927 5.26127C6.72712 4.80837 7.15691 4.46899 7.66188 4.30373V3.66102C7.66188 3.48121 7.73331 3.30877 7.86045 3.18162C7.98759 3.05448 8.16004 2.98305 8.33985 2.98305C8.51965 2.98305 8.6921 3.05448 8.81924 3.18162C8.94638 3.30877 9.01781 3.48121 9.01781 3.66102V4.20339H9.56018C9.73999 4.20339 9.91244 4.27482 10.0396 4.40196C10.1667 4.5291 10.2381 4.70155 10.2381 4.88136C10.2381 5.06116 10.1667 5.23361 10.0396 5.36075C9.91244 5.48789 9.73999 5.55932 9.56018 5.55932H8.33985C8.10538 5.55932 7.88051 5.65246 7.71472 5.81826C7.54892 5.98405 7.45578 6.20892 7.45578 6.44339C7.45578 6.67786 7.54892 6.90273 7.71472 7.06852C7.88051 7.23431 8.10538 7.32746 8.33985 7.32746C8.87116 7.33191 9.38359 7.52507 9.78562 7.87246C10.1877 8.21985 10.4531 8.69884 10.5346 9.22388C10.6161 9.74893 10.5083 10.2858 10.2304 10.7387C9.95257 11.1916 9.52279 11.531 9.01781 11.6963Z" fill="#212F3E"/>
</svg>
