<svg width="841" height="965" viewBox="0 0 841 965" fill="none" xmlns="http://www.w3.org/2000/svg">
<path d="M783.788 471.333C783.788 711.81 910.18 909 669.832 909C429.484 909 0 538.539 0 298.062C0 57.5852 270.662 0 511.01 0C751.359 0 783.788 230.856 783.788 471.333Z" fill="#1CD0A1"/>
<path d="M595.317 628C595.317 766.9 388.217 964.5 249.317 964.5C110.418 964.5 226.317 782.4 226.317 643.5C153.317 484 203.918 455 342.817 455C481.717 455 595.317 489.1 595.317 628Z" fill="#FECA57"/>
<circle cx="753" cy="189" r="88" fill="#FECA57"/>
<rect x="23" y="768.536" width="174" height="174" rx="50" transform="rotate(-25 23 768.536)" fill="#1CD0A1"/>
</svg>
